#!OML:ASF F:\VICON\USERDATA\INSTALL\rory3\rory3.ASF
:FULLY-SPECIFIED
:DEGREES
105
root -0.1674953490903338 17.832132370038178 52.20526924977723 -4.153009249848294 -2.4791419857050694 -2.170388849192193
lfemur -1.6915838448073837 -1.8150274948808929 -17.93398231081964
ltibia 35.36303656834694
lfoot 10.414362777386888 -17.50304178906648
ltoes 2.134206828561351
rfemur -9.554097129754417 6.12273982161726 25.37231199709844
rtibia 21.488106055261376
rfoot -12.299181870602489 -3.336130508185732
rtoes 5.067285011594506
lowerback 10.329887192011324 -0.14523684532304426 2.3450642202468455
upperback 0.11687294506948112 0.16699570419600618 1.424305030763593
thorax -5.313881324140695 0.04031989576870593 0.9944525601939888
lowerneck -15.842848350113686 -2.710859786774751 -3.896853884039259
upperneck 22.3168774649552 -3.1102806854881013 0.8543531785004125
head 9.558924184467086 -1.6091958234112218 0.8840136524054969
lclavicle 1.467485603617341e-16 2.3680724557089104e-16
lhumerus -29.720774488018698 2.5995129068865945 79.61356901687697
lradius 30.300525986138364
lwrist 8.877193866352258
lhand -30.287856108986077 18.7823294479444
lfingers 7.12502
lthumb -3.576926238262131 48.812762935607076
rclavicle 1.4734874450175136e-16 2.372892646718454e-16
rhumerus -28.693268216325546 -20.24252941119008 -75.0835963658912
rradius 20.165429285585912
rwrist 9.656721226754618
rhand -18.032351256464775 23.01013154545542
rfingers 7.12502
rthumb 7.806283836244451 -7.032296375143249
106
root -0.18071575938144568 17.82309777921424 52.45579842985576 -3.9999038959539224 -2.406048841305664 -2.4911742672594497
lfemur -4.961722722953151 -1.2386764385386073 -17.14851046396763
ltibia 39.414355806604114
lfoot 7.797563315650694 -14.472364742804993
ltoes 1.4739511014176179
rfemur -8.617771136999824 6.253720575577167 25.721379386695954
rtibia 22.34026293393387
rfoot -13.12673766729192 -2.6412505579504217
rtoes 5.4269103747459635
lowerback 10.246457239190292 -0.07426713765586251 2.6425686771717505
upperback 0.0828622987068823 0.321074250528555 1.4602645795741458
thorax -5.42293082402652 0.11645515576871754 0.9137289611308321
lowerneck -15.823065083551551 -2.7285747547905723 -3.875795085472214
upperneck 22.31425140371332 -3.1425117047460978 0.835557324510394
head 9.565016550411883 -1.6196458047613382 0.8623631661878073
lclavicle 1.4741020580961298e-16 2.373170591106426e-16
lhumerus -30.693600212439307 2.842795337828258 79.8246106099514
lradius 30.309667010106295
lwrist 8.878989578683392
lhand -30.508597832007887 18.50900235923873
lfingers 7.12502
lthumb -3.72143021735124 48.5561450645372
rclavicle 1.4753137446618167e-16 2.3742968733054588e-16
rhumerus -28.224366247760134 -19.893309535803894 -75.34068801495205
rradius 20.574823440367744
rwrist 9.423830540235729
rhand -18.057184889045395 22.971179776290203
rfingers 7.12502
rthumb 7.795909328780562 -7.1986159612418374
107
root -0.185520353704401 17.820966892724503 52.6961541060234 -3.89352277458625 -2.241608562868124 -2.521529342785777
lfemur -8.18718246664903 -0.81705150507458 -16.838775417123667
ltibia 42.045291281030195
lfoot 5.21926599786164 -10.352227355372914
ltoes 1.6062501681967474
rfemur -7.771560024978343 6.210212401824576 25.80562670719166
rtibia 23.27310856119354
rfoot -13.41510213526867 -1.9351096835810946
rtoes 5.4979211799236465
lowerback 10.115311521546191 -0.052247287656321195 2.795990986543939
upperback 0.038234570610990365 0.3704320440411007 1.4598990806299585
thorax -5.510051343000342 0.15328912291105573 0.8706191413308333
lowerneck -15.81215751311687 -2.7449510485518696 -3.827619698548486
upperneck 22.32965465838906 -3.164334910163633 0.7955094852698923
head 9.573002376922467 -1.626482286190995 0.8351381708930263
lclavicle 1.4684881858363747e-16 2.368859184212927e-16
lhumerus -31.63447140613741 3.4422378672970755 79.94875146920252
lradius 29.888223765937642
lwrist 9.051564188676242
lhand -30.634770503062484 18.26535005205791
lfingers 7.12502
lthumb -3.7733756294846987 48.30916039019655
rclavicle 1.4691324761723532e-16 2.3695436140694554e-16
rhumerus -27.677514056652843 -19.538952860729633 -75.57119873113476
rradius 20.944827983775884
rwrist 9.36757373081305
rhand -18.09062736363146 22.881566533477727
rfingers 7.12502
rthumb 7.788060669860044 -7.526548477493162
108
root -0.1878404756867469 17.804477847289334 52.94631188001886 -3.7589426467017124 -2.235622472254022 -2.5731032274427497
lfemur -11.258410041651551 -0.4188897561906513 -16.56435704859811
ltibia 43.11085869910421
lfoot 3.123181870585186 -5.868691159741527
ltoes 0.48717874649040116
rfemur -7.027466155986238 6.226187454838659 25.906521725537154
rtibia 24.37397516338895
rfoot -13.236265314958446 -1.1759204119412514
rtoes 5.794535928284782
lowerback 10.036574376436414 0.024785385797006898 2.918669702473202
upperback -0.010718658968891931 0.5077100891001141 1.456494212108891
thorax -5.629351099415763 0.2180414064361706 0.8008204489677662
lowerneck -15.804267709749334 -2.76606636797168 -3.776803619872681
upperneck 22.319823794031542 -3.194553428750318 0.7849730134503254
head 9.573580726480824 -1.6373443586674674 0.8230666460529031
lclavicle 1.4658935332497385e-16 2.366882077230718e-16
lhumerus -32.573384360515 4.0490557693776354 80.0377965746895
lradius 29.1521110771335
lwrist 9.12785166452423
lhand -30.541538810732128 17.839242723617645
lfingers 7.12502
lthumb -3.689054934557641 47.96335109138616
rclavicle 1.4707507940883628e-16 2.3707880384814363e-16
rhumerus -27.118263929359557 -19.048760716020205 -75.80522360944904
rradius 21.299073580314705
rwrist 9.429846838990416
rhand -18.13118776480161 22.81535693844891
rfingers 7.12502
rthumb 7.75596423764502 -7.630915714521797
